<svg xmlns="http://www.w3.org/2000/svg" width="100%" height="auto" viewBox="0 0 368 359" version="1.1">
	<path d="M 196.969 70.110 C 196.281 71.425, 194.329 73.680, 192.631 75.122 C 190.065 77.302, 189.754 77.999, 190.792 79.249 C 191.843 80.515, 191.471 81.023, 188.441 82.461 C 185.034 84.078, 184.931 84.266, 186.505 86.006 C 188.071 87.736, 188.014 87.945, 185.543 89.564 L 182.918 91.284 185.124 93.632 C 186.337 94.923, 189.837 96.918, 192.903 98.065 C 198.221 100.055, 198.705 100.076, 203.474 98.536 C 206.223 97.648, 209.682 95.763, 211.160 94.347 L 213.847 91.772 211.173 89.456 C 209.021 87.590, 208.745 86.891, 209.757 85.863 C 210.769 84.835, 210.483 84.163, 208.286 82.411 C 205.982 80.574, 205.759 79.995, 206.850 78.681 C 207.950 77.355, 207.704 76.898, 205.193 75.600 C 203.571 74.761, 201.338 72.645, 200.232 70.897 L 198.220 67.720 196.969 70.110 M 90.766 76.797 C 86.025 90.145, 74.270 102.906, 60.704 109.431 L 51.863 113.683 54.476 116.790 C 55.914 118.498, 59.381 121.578, 62.182 123.633 L 67.273 127.371 64.386 129.742 C 60.681 132.785, 52.871 136.824, 46.500 138.989 C 43.750 139.924, 41.368 141.364, 41.207 142.189 C 41.045 143.014, 43.905 146.488, 47.561 149.908 C 53.819 155.762, 54.100 156.212, 52.354 157.581 C 48.256 160.797, 42.201 163.903, 36.750 165.588 C 33.587 166.565, 31 167.633, 31 167.959 C 31 169.215, 44.752 181.933, 49.771 185.319 C 59.442 191.843, 75.687 198, 83.230 198 C 85.518 198, 86 198.435, 86 200.500 C 86 202.929, 86.200 203, 93 203 C 99.800 203, 100 202.929, 100 200.500 C 100 198.420, 100.477 198, 102.840 198 C 107.910 198, 120.822 194.170, 128.249 190.463 C 136.952 186.119, 148.854 177.235, 153.025 171.969 C 156.318 167.811, 156.331 167.844, 150.500 165.994 C 146.050 164.583, 136.464 159.813, 133.729 157.650 C 132.093 156.355, 132.491 155.716, 138.979 149.228 C 142.841 145.366, 146 141.817, 146 141.340 C 146 140.863, 143.637 139.913, 140.750 139.228 C 134.334 137.705, 126.683 133.904, 122 129.913 L 118.500 126.929 121 125.252 C 122.375 124.330, 125.750 121.360, 128.500 118.651 L 133.500 113.727 129 111.803 C 118.547 107.335, 115.155 105.176, 108.885 98.996 C 102.252 92.459, 97.468 84.648, 94.955 76.250 C 94.256 73.912, 93.410 72, 93.076 72 C 92.743 72, 91.703 74.159, 90.766 76.797 M 290 101.108 C 191.637 120.662, 173.679 126.327, 169.880 139.005 C 168.889 142.314, 169.019 143.407, 170.852 147.194 C 173.505 152.675, 179.483 157.284, 194.155 165.160 C 208.366 172.789, 213 176.961, 213 182.126 C 213 194.909, 186.239 206.134, 112.173 224.420 C 97.693 227.994, 74.293 233.232, 60.173 236.059 C 46.053 238.885, 33.947 241.503, 33.272 241.876 C 32.511 242.297, 36.125 245.437, 42.772 250.130 C 65.437 266.132, 89.169 285.253, 106.903 301.799 L 118.307 312.439 138.403 305.653 C 203.460 283.684, 265.092 257.350, 289.948 240.901 C 301.340 233.363, 313.213 221.955, 315.953 215.915 C 318.317 210.705, 318.574 203.310, 316.560 198.489 C 314.569 193.725, 307.049 186.685, 299.355 182.382 C 288.971 176.575, 278.914 172.709, 252.939 164.541 C 226.631 156.268, 215.343 151.523, 212.069 147.361 C 209.109 143.598, 209.391 138.864, 212.791 135.223 C 218.651 128.951, 240.010 120.111, 278.500 108.030 C 292.800 103.542, 305.400 99.479, 306.500 99.002 L 308.500 98.135 306.500 98.180 C 305.400 98.205, 297.975 99.522, 290 101.108 M 301.960 114.079 C 300.614 116.717, 298.134 119.243, 294.939 121.228 C 289.561 124.572, 289.257 125.114, 291.500 127.357 C 293.624 129.482, 293.491 129.712, 288.750 132.103 C 283.183 134.910, 283.321 134.649, 285.934 137.430 C 288.682 140.355, 288.045 141.638, 282.720 143.900 L 278.669 145.620 284.382 150.274 C 287.860 153.107, 292.325 155.621, 295.797 156.699 C 298.934 157.674, 301.650 158.815, 301.833 159.236 C 302.301 160.308, 307 160.195, 307 159.111 C 307 158.623, 308.667 157.910, 310.703 157.528 C 315.762 156.579, 321.317 153.612, 326.060 149.326 L 330.031 145.739 325.015 143.416 C 322.257 142.138, 320 140.691, 320 140.201 C 320 139.711, 320.900 138.495, 322 137.500 C 323.100 136.505, 324 135.399, 324 135.044 C 324 134.689, 321.917 133.387, 319.372 132.150 L 314.744 129.902 317.122 127.314 C 318.657 125.643, 319.080 124.575, 318.315 124.301 C 314.637 122.984, 308.582 117.361, 307.139 113.923 C 306.237 111.777, 305.172 110.016, 304.770 110.010 C 304.369 110.005, 303.104 111.836, 301.960 114.079" stroke="none" fill="black" fill-rule="evenodd"/>
</svg>