<svg version="1.1" id="Layer_1" xmlns="http://www.w3.org/2000/svg" xmlns:xlink="http://www.w3.org/1999/xlink" x="0px" y="0px"
	 width="100%" viewBox="0 0 1024 512" enable-background="new 0 0 1024 512" xml:space="preserve">
<path fill="#000000" opacity="1.000000" stroke="none" 
	d="
M257.421448,230.654739 
	C264.250061,235.441025 271.937286,237.226532 279.368439,239.606705 
	C287.612335,242.247177 295.972656,244.545471 303.736969,248.493393 
	C304.775238,249.021332 305.850372,249.482544 306.861359,250.057434 
	C320.782776,257.973602 321.699585,268.542145 309.368439,278.891205 
	C296.804749,289.435516 281.883636,295.734924 267.081757,302.196014 
	C247.690674,310.660248 227.701996,317.555298 207.740707,324.526245 
	C203.627563,325.962646 200.794785,325.513672 197.569626,322.352997 
	C184.689621,309.730591 170.365265,298.834839 155.687469,288.397980 
	C154.496506,287.551117 153.033325,286.975342 152.371796,285.494080 
	C152.927063,283.535065 154.648407,283.845612 156.027283,283.564423 
	C182.934296,278.077484 209.791534,272.389526 235.908707,263.725800 
	C241.449387,261.887817 246.986847,259.969421 251.750259,256.484314 
	C257.539551,252.248611 257.404419,248.236969 251.342148,244.518738 
	C247.655182,242.257385 243.676422,240.465912 240.026489,238.151520 
	C235.697723,235.406723 230.461151,232.762985 231.119385,226.604797 
	C231.759933,220.611923 237.039856,218.547852 241.959091,216.766785 
	C252.158798,213.073822 262.744019,210.821136 273.350494,208.669815 
	C284.598663,206.388367 295.830811,204.026611 307.093719,201.821198 
	C308.601929,201.525864 310.219147,200.430023 312.050079,201.773666 
	C310.963684,203.879440 308.771881,203.834457 307.020569,204.370728 
	C293.012604,208.660263 278.949615,212.784241 265.476685,218.625610 
	C262.730377,219.816315 259.937622,220.979965 257.748810,223.128311 
	C255.466873,225.368088 254.375854,227.746094 257.421448,230.654739 
z"/>
<path fill="#000000" opacity="1.000000" stroke="none" 
	d="
M220.858582,246.859055 
	C213.631699,253.605240 205.608505,258.074677 196.160461,259.841278 
	C194.563232,260.139954 193.150055,260.611725 191.840057,261.961731 
	C189.604843,264.265167 186.042953,264.091309 184.046997,262.502991 
	C181.360016,260.364807 178.416336,259.980560 175.468079,259.065002 
	C165.747971,256.046631 157.492249,250.903015 151.149780,242.429382 
	C155.091324,239.533661 160.083099,239.350632 163.138428,235.667892 
	C161.867294,232.250732 157.628525,231.113541 156.987534,226.829132 
	C160.871552,223.651443 167.081406,223.898438 170.483551,219.123947 
	C169.151764,215.821411 164.877197,214.905975 163.684113,210.272720 
	C174.973907,206.327133 182.692886,198.133591 187.591095,186.444244 
	C191.488617,198.542557 198.936722,206.679443 210.751358,210.088135 
	C209.763657,214.639755 205.880035,215.825974 203.897705,218.794235 
	C207.555832,223.183945 212.864929,224.351807 217.919296,226.255508 
	C217.537979,230.512177 213.796036,232.216537 211.658661,235.311340 
	C214.752167,239.334595 220.112274,239.520813 223.755447,242.145065 
	C223.629486,244.373657 222.183136,245.372543 220.858582,246.859055 
z"/>
<path fill="#000000" opacity="1.000000" stroke="none" 
	d="
M453.528687,261.952942 
	C445.944855,262.589600 439.079071,261.414642 432.785248,258.020172 
	C429.973083,256.503510 427.935028,256.354858 425.929504,258.983795 
	C424.168762,261.291901 421.844330,261.594025 419.213409,260.678436 
	C415.392029,259.348541 414.605682,257.350952 417.588867,254.714813 
	C421.513275,251.246948 421.043518,248.559082 418.509583,244.220154 
	C405.486115,221.919800 421.672302,194.042343 447.510437,193.604935 
	C454.321716,193.489639 460.854309,194.380188 466.756226,197.839127 
	C469.320496,199.341995 471.000671,198.991455 472.735535,196.851837 
	C474.442749,194.746323 476.442841,193.699570 479.291748,194.818619 
	C483.901672,196.629395 484.523895,198.461700 480.894501,201.779465 
	C477.846588,204.565613 477.252502,206.676239 479.712433,210.554459 
	C493.566650,232.396225 478.896790,259.237762 453.528687,261.952942 
M460.220551,206.782303 
	C449.425018,201.708878 436.220795,204.521790 430.120697,213.189011 
	C425.036163,220.413315 422.856873,232.978836 430.092712,240.422668 
	C430.597595,240.139648 431.263336,239.938324 431.689056,239.502533 
	C441.087952,229.881744 450.471283,220.245636 459.819031,210.575211 
	C460.675018,209.689651 461.972168,208.738220 460.220551,206.782303 
M458.561188,225.055222 
	C451.483551,232.565567 443.691742,239.425323 437.100098,247.522369 
	C447.644836,254.660233 461.290649,251.869858 469.047058,241.805206 
	C474.794281,234.347656 475.114227,220.324066 468.167725,214.840607 
	C465.145782,218.056885 462.097900,221.300751 458.561188,225.055222 
z"/>
<path fill="#000000" opacity="1.000000" stroke="none" 
	d="
M513.400146,218.973511 
	C513.232483,231.087662 513.196899,242.905212 513.108521,254.722351 
	C513.066528,260.340790 509.009308,262.874634 503.866333,260.658234 
	C501.659668,259.707275 501.805328,257.835480 501.802826,256.035614 
	C501.776093,236.725555 501.772461,217.415436 501.792328,198.105362 
	C501.793976,196.485336 501.537842,194.581329 503.671387,193.965469 
	C505.585297,193.413055 507.265167,193.975723 508.646973,195.451294 
	C513.425171,200.554062 518.216980,205.644150 523.007385,210.735474 
	C531.534607,219.798218 540.064514,228.858322 548.718323,238.052368 
	C550.347473,236.027908 549.729004,234.137314 549.740540,232.416550 
	C549.814453,221.430222 549.908325,210.441269 549.732971,199.457382 
	C549.664429,195.162567 551.906494,194.624863 555.385132,194.617111 
	C558.848694,194.609390 561.149841,195.131470 561.128174,199.398407 
	C561.030884,218.541351 561.106384,237.685104 561.083740,256.828522 
	C561.081848,258.449005 561.278687,260.366333 559.215881,261.017426 
	C556.678101,261.818390 554.767334,260.668976 553.037659,258.831024 
	C543.570374,248.771118 534.168030,238.645676 524.499023,228.782318 
	C521.029480,225.243057 518.601929,220.476715 513.400146,218.973511 
z"/>
<path fill="#000000" opacity="1.000000" stroke="none" 
	d="
M581.810791,241.998550 
	C581.812439,228.012390 581.743958,214.525070 581.880920,201.039856 
	C581.905640,198.607605 580.522949,195.284409 583.900146,194.016281 
	C586.997192,192.853333 588.689392,195.529495 590.495483,197.450272 
	C602.127319,209.820511 613.740906,222.207932 625.405518,234.547180 
	C626.483521,235.687531 627.243286,237.335052 629.728027,237.663193 
	C629.728027,228.099136 629.728210,218.675903 629.727905,209.252686 
	C629.727844,206.422165 629.967468,203.566223 629.672424,200.766724 
	C629.155762,195.865662 631.237305,194.409302 635.961182,194.557999 
	C639.905151,194.682159 641.192566,196.107864 641.171753,199.904968 
	C641.069458,218.552444 641.152588,237.200867 641.104004,255.848785 
	C641.099121,257.722198 641.789368,260.128571 639.259460,261.022339 
	C636.715942,261.920898 634.818970,260.562469 633.117004,258.755341 
	C621.588867,246.514664 610.017517,234.314682 598.512268,222.052582 
	C597.178833,220.631409 596.165955,218.909500 595.004517,217.326996 
	C594.409546,217.655045 593.814636,217.983093 593.219666,218.311142 
	C593.219666,222.051788 593.221802,225.792435 593.219238,229.533081 
	C593.213196,238.524094 593.086487,247.517273 593.250366,256.505157 
	C593.325256,260.617035 590.980652,261.079987 587.810242,261.052826 
	C584.609314,261.025391 581.677368,260.954224 581.793762,256.483063 
	C581.914978,251.824417 581.814514,247.160019 581.810791,241.998550 
z"/>
<path fill="#000000" opacity="1.000000" stroke="none" 
	d="
M881.492310,254.625122 
	C874.950684,259.198853 867.824890,260.699738 860.407471,260.988312 
	C855.083069,261.195435 849.739136,260.897766 844.414246,261.098877 
	C840.307068,261.253998 838.803162,259.566650 838.843079,255.495178 
	C838.980408,241.499481 838.744385,227.499329 838.960144,213.505630 
	C839.039734,208.343124 838.641785,203.611221 834.993591,199.579056 
	C834.059631,198.546875 833.022400,197.254807 833.577393,195.311478 
	C834.070068,195.147552 834.667664,194.768723 835.258789,194.778656 
	C846.393799,194.965973 857.630676,193.380951 868.639526,195.764587 
	C881.775452,198.608780 890.173523,206.910156 893.042847,219.996918 
	C895.995300,233.462738 893.349670,245.498459 881.492310,254.625122 
M873.950928,246.533997 
	C877.966431,243.794556 880.600220,240.055511 881.768250,235.357666 
	C883.951050,226.578705 882.657349,218.430161 876.398132,211.667450 
	C869.937378,204.686981 861.341125,204.782059 852.739929,205.381653 
	C850.475891,205.539490 850.253235,207.245132 850.252625,208.992081 
	C850.248047,221.458008 850.262817,233.923920 850.266235,246.389847 
	C850.266785,248.254456 850.821167,249.812012 852.961731,249.835831 
	C859.891541,249.912918 866.988281,251.033432 873.950928,246.533997 
z"/>
<path fill="#000000" opacity="1.000000" stroke="none" 
	d="
M780.341675,222.420441 
	C781.610840,219.658020 782.763611,217.256348 783.811707,214.809860 
	C786.436462,208.683197 790.953918,202.853851 786.345825,195.841614 
	C794.434692,193.139755 796.298584,194.075394 799.396545,201.158157 
	C807.129883,218.838745 814.988464,236.464493 822.775696,254.121552 
	C823.568176,255.918610 824.737366,257.613434 824.607300,259.708221 
	C818.098328,262.733643 814.714539,261.692596 812.368286,255.222656 
	C810.621094,250.404404 807.889160,248.449142 802.691406,248.949173 
	C795.943176,249.598404 789.046509,248.253540 782.389648,250.514893 
	C779.565125,251.474396 777.531616,253.052704 776.131165,255.794632 
	C773.184509,261.564026 771.287231,262.163452 763.572754,259.840515 
	C769.135986,247.417542 774.656860,235.089172 780.341675,222.420441 
M793.094421,219.079147 
	C790.172974,225.651489 787.251465,232.223846 783.683228,240.251236 
	C791.240356,238.146790 797.445007,238.873886 804.417358,238.594711 
	C801.244812,231.237946 798.462891,224.563873 795.458862,217.991333 
	C794.780396,216.506912 793.917236,217.690720 793.094421,219.079147 
z"/>
<path fill="#000000" opacity="1.000000" stroke="none" 
	d="
M666.259277,225.817932 
	C659.860962,220.562653 658.266724,214.131653 660.438721,206.744690 
	C662.887451,198.416656 669.566956,195.107559 677.311401,193.929367 
	C685.244446,192.722488 692.871887,194.368103 699.938721,198.334885 
	C702.190369,199.598724 704.032837,200.922821 701.926270,203.706253 
	C700.174500,206.020935 699.394714,209.938065 694.854553,207.194183 
	C689.579895,204.006485 683.806091,202.654190 677.630859,204.287598 
	C674.156250,205.206635 671.564819,207.043182 671.110535,210.917282 
	C670.678101,214.605484 672.625366,217.112152 675.712341,218.452255 
	C681.197083,220.833206 686.910400,222.685501 692.407898,225.039658 
	C698.924500,227.830200 703.484436,232.412186 704.237610,239.854904 
	C705.064941,248.031006 701.346069,255.225571 693.903748,258.737579 
	C682.213440,264.254242 670.962280,262.469849 660.160400,255.918518 
	C656.599304,253.758743 658.503357,251.534790 659.815796,249.231339 
	C661.181702,246.834290 662.550842,245.229355 665.678589,247.241776 
	C670.365051,250.257156 675.527649,252.046066 681.258911,251.696915 
	C683.980042,251.531128 686.548218,250.877914 688.811951,249.395599 
	C694.233276,245.845627 694.251831,239.459000 688.863647,235.829483 
	C686.073425,233.949997 682.857056,233.001022 679.695862,231.954834 
	C675.109802,230.437088 670.517578,228.929123 666.259277,225.817932 
z"/>
<path fill="#000000" opacity="1.000000" stroke="none" 
	d="
M734.044189,251.891327 
	C734.067322,237.922714 733.981201,224.435959 734.168945,210.953018 
	C734.228149,206.705917 732.856750,204.688477 728.420288,205.178009 
	C726.611206,205.377640 724.761230,205.214966 722.929932,205.201675 
	C716.823853,205.157394 716.170593,204.284286 716.626404,198.143631 
	C716.820679,195.526794 717.988037,194.680222 720.385315,194.684616 
	C733.703918,194.709045 747.022705,194.718536 760.341125,194.671661 
	C764.492737,194.657043 764.021973,197.592590 764.113098,200.235291 
	C764.208252,202.994385 763.774780,205.278793 760.197754,205.209732 
	C756.869568,205.145477 753.524414,205.414780 750.212830,205.175629 
	C746.053955,204.875290 745.227844,206.904404 745.264709,210.581406 
	C745.410034,225.064163 745.325867,239.549286 745.313599,254.033539 
	C745.307983,260.662354 744.944946,260.810516 739.431885,261.088196 
	C733.669861,261.378448 733.940552,257.682922 734.029663,253.872986 
	C734.041321,253.373718 734.037476,252.874100 734.044189,251.891327 
z"/>
<path fill="#000000" opacity="1.000000" stroke="none" 
	d="
M370.349335,242.837341 
	C370.402649,249.934982 370.402557,249.962967 376.949677,249.985321 
	C384.275696,250.010330 391.604187,250.083710 398.927216,249.928574 
	C402.966949,249.843002 404.037170,251.835571 404.041870,255.479080 
	C404.046509,259.094025 403.076630,261.096252 398.987549,261.051392 
	C387.333801,260.923584 375.677429,260.995728 364.022400,261.049103 
	C360.919342,261.063324 359.556244,259.835938 359.571442,256.575867 
	C359.660675,237.428253 359.715637,218.279129 359.544800,199.132614 
	C359.503418,194.492706 362.198364,194.759140 365.364105,194.617737 
	C368.928711,194.458527 370.445801,195.575378 370.402679,199.403580 
	C370.241394,213.721130 370.345154,228.041672 370.349335,242.837341 
z"/>
<path fill="#000000" opacity="1.000000" stroke="none" 
	d="
M362.338745,279.021667 
	C367.789246,278.937805 372.777985,278.812531 377.760620,278.934296 
	C388.253754,279.190735 392.534180,285.041992 389.383698,294.937653 
	C388.829620,296.677948 389.327820,297.570679 390.232849,298.899292 
	C395.588806,306.761841 391.593201,316.007416 382.099274,316.986084 
	C375.848724,317.630402 369.483551,317.162781 363.169708,317.192413 
	C360.627960,317.204346 359.658966,315.801849 359.661804,313.409271 
	C359.673950,303.104370 359.654541,292.799438 359.653137,282.494537 
	C359.652924,280.887756 360.041595,279.513000 362.338745,279.021667 
M379.156738,300.974915 
	C376.504822,300.985168 373.852051,301.043640 371.201233,300.994202 
	C367.322144,300.921844 366.107941,302.876526 366.113129,306.593323 
	C366.118561,310.497437 368.269562,310.839142 371.247498,310.710175 
	C373.894897,310.595520 376.551880,310.722656 379.202271,310.652954 
	C382.455872,310.567383 385.298248,309.579712 385.581665,305.826202 
	C385.866119,302.059723 383.148773,301.174652 379.156738,300.974915 
M377.034821,285.402222 
	C375.208618,285.400055 373.373108,285.515076 371.558167,285.371033 
	C367.903778,285.080963 366.091553,286.213501 366.088745,290.335327 
	C366.085876,294.570984 368.366089,294.835693 371.512451,294.635681 
	C373.331390,294.520050 375.166382,294.677216 376.989105,294.597229 
	C380.118286,294.459930 383.279785,293.939606 383.604553,290.067108 
	C383.934418,286.133606 380.807434,285.747650 377.034821,285.402222 
z"/>
<path fill="#000000" opacity="1.000000" stroke="none" 
	d="
M689.615417,299.998535 
	C689.617920,294.181000 689.716980,288.860931 689.590332,283.546234 
	C689.517273,280.480804 690.538086,278.844574 693.825989,278.900848 
	C699.640198,279.000397 705.469299,278.744324 711.268311,279.066559 
	C716.247070,279.343231 720.283630,281.651733 721.956909,286.665710 
	C723.501709,291.294617 722.555420,295.509094 718.948608,298.992493 
	C714.742371,303.054749 715.361572,308.058105 720.810974,310.223175 
	C723.802551,311.411743 725.159180,312.949799 723.875549,315.645752 
	C722.531738,318.468262 719.855652,317.140350 717.727051,316.442444 
	C712.926819,314.868622 711.500610,310.282135 709.184509,306.517456 
	C707.988953,304.574158 707.270264,302.451721 704.308594,302.166962 
	C697.476990,301.510040 696.448242,302.501831 696.168823,309.629547 
	C696.063782,312.308716 698.231812,316.910919 693.088196,317.018341 
	C687.409180,317.136932 690.090698,312.241394 689.708313,309.459717 
	C689.304810,306.523865 689.617554,303.489563 689.615417,299.998535 
M710.682312,295.595856 
	C713.762634,294.965393 716.019592,293.477753 715.671753,289.954712 
	C715.313660,286.327301 712.453979,285.619843 709.532471,285.465881 
	C706.230347,285.291901 702.911926,285.445221 699.601074,285.412384 
	C697.331909,285.389893 696.467285,286.476624 696.248169,288.723145 
	C695.650574,294.850739 696.258911,295.647400 702.378174,295.677399 
	C704.861450,295.689575 707.345032,295.658264 710.682312,295.595856 
z"/>
<path fill="#000000" opacity="1.000000" stroke="none" 
	d="
M453.552826,311.412415 
	C446.423645,302.559052 446.458160,292.287018 453.385559,284.834747 
	C460.422150,277.265015 472.918732,275.615417 481.307587,281.180084 
	C483.139343,282.395172 485.124420,283.583252 483.301453,286.315491 
	C481.751709,288.638275 480.194458,288.508911 477.860596,287.191833 
	C471.353638,283.519745 463.814484,284.166595 459.272217,288.428925 
	C454.354187,293.043854 453.717102,300.927124 457.843140,306.111755 
	C462.106598,311.469055 471.092957,313.144073 476.388428,309.568451 
	C479.665619,307.355591 479.479187,303.696320 475.839844,302.071777 
	C473.343719,300.957581 472.480316,299.157959 472.292542,296.485046 
	C475.846680,295.120026 479.317657,295.766785 482.733887,295.889587 
	C483.313873,295.910461 484.020294,296.329926 484.420837,296.783691 
	C486.799835,299.478821 484.844635,312.177246 481.784607,314.228638 
	C472.987061,320.126312 462.002197,319.123932 453.552826,311.412415 
z"/>
<path fill="#000000" opacity="1.000000" stroke="none" 
	d="
M507.244354,317.212646 
	C504.022705,317.044281 503.693146,315.136292 503.691650,312.980499 
	C503.688782,308.816010 503.703674,304.651306 503.668182,300.487061 
	C503.608398,293.481293 505.190338,286.132935 499.159424,281.078430 
	C500.248138,278.700958 501.710327,278.931671 502.991516,278.921387 
	C507.988495,278.881226 512.994263,278.729218 517.981750,278.952393 
	C529.203918,279.454559 536.452087,287.273926 536.317566,298.479858 
	C536.185913,309.447296 528.464661,317.044556 517.213562,317.235168 
	C514.049500,317.288788 510.883698,317.239960 507.244354,317.212646 
M513.858215,285.416382 
	C511.307129,285.375153 510.351440,286.752106 510.368042,289.165802 
	C510.409088,295.134033 510.376831,301.102753 510.390381,307.071228 
	C510.393860,308.604431 510.538208,309.959045 512.402588,310.583252 
	C520.420227,313.267517 529.233521,307.369873 529.681458,298.940857 
	C530.147522,290.169464 524.994263,285.512024 513.858215,285.416382 
z"/>
<path fill="#000000" opacity="1.000000" stroke="none" 
	d="
M600.655151,281.594482 
	C608.321228,276.551605 615.741699,277.089233 623.106812,281.277863 
	C624.810852,282.246979 626.738098,283.436157 625.050964,285.983856 
	C623.605103,288.167328 622.010071,288.677856 619.625366,287.140869 
	C615.996521,284.801910 612.043762,283.770813 607.734680,285.288666 
	C605.323669,286.137878 603.354858,287.624084 603.730957,290.281982 
	C604.072937,292.699036 606.246216,293.543671 608.620728,293.732544 
	C612.266113,294.022491 615.938477,294.224274 619.531982,294.850159 
	C623.552307,295.550385 626.544922,297.673615 627.680298,301.948120 
	C628.808411,306.195679 627.978943,309.868408 624.929260,312.993073 
	C618.381409,319.701904 603.477539,319.421112 597.040588,312.586578 
	C594.099670,309.464050 596.547668,307.974487 598.818115,306.082764 
	C602.069824,307.597748 604.626343,310.409790 608.326050,311.177917 
	C612.314880,312.006134 616.042053,311.680817 619.205566,309.108734 
	C622.779114,306.203217 622.055359,302.803162 617.759766,301.168243 
	C614.534729,299.940826 611.162476,300.548523 607.857483,300.304779 
	C603.335144,299.971313 599.046936,298.771271 597.308411,294.102509 
	C595.610107,289.541840 596.529602,285.230377 600.655151,281.594482 
z"/>
<path fill="#000000" opacity="1.000000" stroke="none" 
	d="
M575.707397,278.911499 
	C578.646240,278.983429 580.431519,279.732330 580.145874,282.719727 
	C579.862488,285.683624 577.622559,285.328644 575.672913,285.371979 
	C572.844055,285.434845 570.013062,285.402710 567.182983,285.402832 
	C558.529358,285.403198 558.529358,285.401672 559.584351,294.639618 
	C563.245850,294.639618 566.992554,294.639648 570.739319,294.639587 
	C572.792236,294.639557 574.296692,295.150330 574.318359,297.682648 
	C574.339661,300.179718 572.830139,300.811035 570.815063,300.914917 
	C568.821411,301.017700 566.820618,301.068329 564.825073,301.029938 
	C561.017029,300.956696 559.039734,302.298889 559.076660,306.577911 
	C559.114929,311.004700 561.793945,310.735413 564.736572,310.706573 
	C569.230896,310.662506 573.726074,310.712708 578.220886,310.707855 
	C580.289062,310.705627 581.836975,311.306030 581.939575,313.719391 
	C582.051086,316.339996 580.566345,317.240967 578.200317,317.237701 
	C570.709106,317.227417 563.217834,317.214996 555.726624,317.231415 
	C553.275879,317.236786 551.995056,316.096466 551.992249,313.625580 
	C551.980713,303.471100 551.996826,293.316528 551.965027,283.162140 
	C551.954712,279.863892 553.814819,278.873566 556.765076,278.895203 
	C562.924316,278.940369 569.084167,278.903442 575.707397,278.911499 
z"/>
<path fill="#000000" opacity="1.000000" stroke="none" 
	d="
M867.202148,317.259338 
	C863.357544,317.558594 861.864929,316.082916 861.897095,312.641724 
	C861.987549,302.982452 861.968567,293.321564 861.906799,283.661835 
	C861.885437,280.319611 863.293640,278.807739 866.702637,278.870728 
	C872.863220,278.984650 879.027283,278.904510 885.189758,278.924896 
	C887.455505,278.932404 889.678894,279.067444 889.781494,282.158264 
	C889.887939,285.366425 887.677795,285.409332 885.378967,285.397675 
	C881.215271,285.376556 877.048157,285.503174 872.888245,285.377441 
	C869.147339,285.264374 869.113220,287.674774 869.057068,290.344635 
	C868.999023,293.107025 869.704895,294.860260 872.969421,294.633484 
	C875.455139,294.460846 877.963501,294.602448 880.461670,294.623047 
	C882.436035,294.639282 884.120117,294.957947 884.207397,297.529083 
	C884.301636,300.301117 882.583984,300.881927 880.368835,300.953339 
	C878.039368,301.028442 875.708679,301.066406 873.378418,301.118073 
	C869.428162,301.205688 869.038452,303.794678 869.031128,306.947754 
	C869.023499,310.224854 870.846375,310.768555 873.538940,310.716492 
	C878.034180,310.629578 882.532532,310.706024 887.029541,310.696564 
	C889.384644,310.691589 891.378967,310.949188 891.262512,314.133087 
	C891.157471,317.005219 889.293335,317.230896 887.164734,317.235992 
	C880.669067,317.251526 874.173401,317.253937 867.202148,317.259338 
z"/>
<path fill="#000000" opacity="1.000000" stroke="none" 
	d="
M656.343872,294.632751 
	C658.947510,294.655762 661.110168,294.635590 663.269043,294.717041 
	C665.101257,294.786194 665.897156,295.893768 665.919739,297.655823 
	C665.942078,299.399261 665.177490,300.622040 663.397644,300.765900 
	C660.750549,300.979828 658.087341,301.055176 655.430237,301.071655 
	C651.668823,301.094940 650.225647,302.817566 650.227295,306.647491 
	C650.229004,310.666809 652.503906,310.766571 655.410217,310.717896 
	C660.064880,310.639954 664.722046,310.719330 669.378113,310.708496 
	C671.648926,310.703217 673.240723,311.293518 673.241028,314.041656 
	C673.241394,316.886810 671.472961,317.245758 669.286499,317.243164 
	C662.136047,317.234711 654.985229,317.184479 647.835388,317.249023 
	C644.881348,317.275696 643.645142,315.980560 643.661621,313.044037 
	C643.717590,303.066986 643.726257,293.088928 643.635193,283.112335 
	C643.608032,280.137207 644.866150,278.872253 647.779297,278.893707 
	C654.264221,278.941528 660.749695,278.920624 667.234985,278.907990 
	C669.746582,278.903107 671.365356,279.663208 671.304138,282.620972 
	C671.239441,285.743317 669.122009,285.405518 667.129761,285.410583 
	C664.136536,285.418213 661.143311,285.393982 658.150085,285.399048 
	C649.790100,285.413147 649.790100,285.416321 650.627075,294.262146 
	C652.289856,295.381378 654.152588,294.342743 656.343872,294.632751 
z"/>
<path fill="#000000" opacity="1.000000" stroke="none" 
	d="
M819.493774,305.359802 
	C825.626099,311.957977 833.143860,312.999390 840.270996,308.298645 
	C842.493164,306.833038 844.185425,305.972046 846.094055,308.670227 
	C848.110291,311.520569 845.827698,312.564941 844.126770,313.722870 
	C836.592163,318.852203 828.569946,319.526611 820.619019,315.121155 
	C813.275391,311.052155 809.857300,304.487274 810.705505,295.982239 
	C811.485596,288.159637 815.601807,282.658020 822.816162,279.688202 
	C830.070068,276.702087 837.128479,277.461914 843.767212,281.659088 
	C845.346863,282.657806 846.961731,283.759094 845.450256,286.021149 
	C844.078979,288.073364 842.594604,289.154327 840.142944,287.361328 
	C837.385254,285.344604 834.197510,284.390350 830.761597,284.657623 
	C819.718262,285.516632 814.594055,294.658813 819.493774,305.359802 
z"/>
<path fill="#000000" opacity="1.000000" stroke="none" 
	d="
M768.401123,279.092346 
	C770.126709,278.926270 771.458069,278.853516 772.497009,279.828369 
	C773.271240,281.096466 772.567627,282.163208 772.138123,283.197266 
	C767.986389,293.191071 763.743713,303.147522 759.658081,313.168091 
	C758.519409,315.960724 756.975830,317.408539 753.731628,317.329132 
	C750.606140,317.252655 749.378357,315.539307 748.368958,313.052002 
	C743.940186,302.139160 739.447510,291.252258 734.874939,280.104553 
	C738.963989,278.171783 741.506287,278.551331 743.162292,282.664124 
	C746.450439,290.830200 749.959290,298.907379 754.654297,307.273193 
	C756.773743,302.183563 758.667419,296.983856 761.080200,292.037292 
	C763.212219,287.666290 763.415588,282.210815 768.401123,279.092346 
z"/>
<path fill="#000000" opacity="1.000000" stroke="none" 
	d="
M320.433868,233.582474 
	C309.646088,241.344193 299.782837,236.406296 295.519592,229.993683 
	C299.157135,222.032990 302.425262,214.081863 309.805328,209.006256 
	C314.023590,212.855164 317.951569,217.518036 320.374329,222.791672 
	C321.434601,225.099594 321.067047,228.091568 323.895355,229.329605 
	C323.551544,231.529800 322.022095,232.348419 320.433868,233.582474 
z"/>
<path fill="#000000" opacity="1.000000" stroke="none" 
	d="
M420.276184,293.872803 
	C424.652069,291.084747 426.423645,286.445831 429.040405,282.479950 
	C431.230316,279.161011 433.725006,278.023956 437.985718,279.866638 
	C436.365295,284.680939 433.452454,288.742279 430.404602,292.490997 
	C425.650604,298.338074 423.063629,304.548187 424.126434,312.174469 
	C424.482788,314.731689 424.212250,317.348572 420.440094,317.230347 
	C416.979004,317.121918 416.741730,314.584106 417.093292,312.292084 
	C418.359894,304.034332 415.076843,297.503143 410.099243,291.319000 
	C407.420166,287.990570 405.347870,284.173737 402.819946,280.298462 
	C406.796967,278.051849 409.491699,278.540466 411.744659,281.905365 
	C414.425140,285.908722 417.239319,289.822571 420.276184,293.872803 
z"/>
<path fill="#000000" opacity="1.000000" stroke="none" 
	d="
M787.832886,283.324036 
	C787.774658,280.166382 789.021057,278.838165 791.786011,279.019806 
	C794.453064,279.195068 795.024597,281.020569 795.028503,283.187439 
	C795.046570,293.182526 795.016296,303.177734 795.014099,313.172882 
	C795.013489,315.726929 794.110901,317.287354 791.213867,317.207489 
	C788.126709,317.122345 787.832153,315.097809 787.830872,312.769287 
	C787.825562,303.106934 787.825195,293.444580 787.832886,283.324036 
z"/>
<path fill="#000000" opacity="1.000000" stroke="none" 
	d="
M252.958832,202.174072 
	C247.274323,204.163498 244.153000,203.320831 239.169754,198.551712 
	C241.689041,193.708176 243.206009,188.170013 248.075150,184.791534 
	C253.627487,187.835907 255.057663,193.457840 257.326416,198.536987 
	C256.647980,200.502701 254.832733,201.117355 252.958832,202.174072 
z"/>
</svg>