<?xml version="1.0" encoding="iso-8859-1"?>
<!-- Uploaded to: SVG Repo, www.svgrepo.com, Generator: SVG Repo Mixer Tools -->
<svg fill="#000000" height="800px" width="800px" version="1.1" id="Layer_1" xmlns="http://www.w3.org/2000/svg" xmlns:xlink="http://www.w3.org/1999/xlink" 
	 viewBox="0 0 512 512" xml:space="preserve">
<g>
	<g>
		<path d="M472.248,252.29h-23.851v-63.072c0-30.686-24.966-55.652-55.652-55.652h-63.602c-13.151,0-23.851,10.7-23.851,23.851
			v149.996H173.317c-4.391,0-7.95,3.559-7.95,7.95c0,4.392,3.56,7.95,7.95,7.95h139.925c4.392,0,7.95-3.559,7.95-7.95V157.416
			c0-4.384,3.566-7.95,7.95-7.95h63.602c21.92,0,39.752,17.832,39.752,39.752v71.023c0,4.392,3.559,7.95,7.95,7.95h31.801
			c13.151,0,23.851,10.7,23.851,23.851v74.733h-9.738c-9.045-22.349-30.962-38.161-56.515-38.161s-47.47,15.813-56.515,38.161
			h-56.577c-9.045-22.349-30.962-38.161-56.515-38.161s-47.47,15.813-56.515,38.161H189.55
			c-9.045-22.349-30.962-38.161-56.515-38.161s-47.47,15.813-56.515,38.161H62.542v-43.462h68.373c4.391,0,7.95-3.559,7.95-7.95
			c0-4.392-3.56-7.95-7.95-7.95H54.592c-4.391,0-7.95,3.559-7.95,7.95v59.362c0,4.392,3.56,7.95,7.95,7.95h17.891
			c-0.255,2.263-0.401,4.56-0.401,6.89c0,33.61,27.343,60.952,60.952,60.952c33.61,0,60.952-27.343,60.952-60.952
			c0-2.33-0.144-4.627-0.401-6.89h6.101c-0.255,2.263-0.401,4.56-0.401,6.89c0,33.61,27.343,60.952,60.952,60.952
			c33.61,0,60.952-27.343,60.952-60.952c0-2.33-0.144-4.627-0.401-6.89h48.502c-0.255,2.263-0.401,4.56-0.401,6.89
			c0,33.61,27.343,60.952,60.952,60.952c33.61,0,60.952-27.343,60.952-60.952c0-2.33-0.144-4.627-0.401-6.89h13.653
			c4.392,0,7.95-3.559,7.95-7.95v-82.683C512,270.122,494.168,252.29,472.248,252.29z M133.035,434.617
			c-24.842,0-45.052-20.21-45.052-45.052c0-24.842,20.21-45.052,45.052-45.052c24.842,0,45.052,20.21,45.052,45.052
			C178.087,414.407,157.877,434.617,133.035,434.617z M260.24,434.617c-24.842,0-45.052-20.21-45.052-45.052
			c0-24.842,20.21-45.052,45.052-45.052s45.052,20.21,45.052,45.052C305.292,414.407,285.082,434.617,260.24,434.617z
			 M429.847,434.617c-24.842,0-45.052-20.21-45.052-45.052c0-24.842,20.21-45.052,45.052-45.052s45.052,20.21,45.052,45.052
			C474.899,414.407,454.689,434.617,429.847,434.617z"/>
	</g>
</g>
<g>
	<g>
		<path d="M392.745,159.006h-54.062c-4.392,0-7.95,3.559-7.95,7.95v93.284c0,4.392,3.559,7.95,7.95,7.95h76.323
			c4.392,0,7.95-3.559,7.95-7.95v-71.023C422.957,172.559,409.404,159.006,392.745,159.006z M407.056,252.29h-60.422v-77.383h46.112
			c7.891,0,14.311,6.42,14.311,14.311V252.29z"/>
	</g>
</g>
<g>
	<g>
		<path d="M364.124,275.611h-25.441c-4.392,0-7.95,3.559-7.95,7.95c0,4.392,3.559,7.95,7.95,7.95h25.441
			c4.392,0,7.95-3.559,7.95-7.95C372.075,279.169,368.516,275.611,364.124,275.611z"/>
	</g>
</g>
<g>
	<g>
		<path d="M429.847,354.054c-19.581,0-35.511,15.93-35.511,35.511c0,19.581,15.93,35.511,35.511,35.511s35.511-15.93,35.511-35.511
			C465.358,369.984,449.428,354.054,429.847,354.054z M429.847,409.176c-10.813,0-19.611-8.797-19.611-19.611
			s8.797-19.611,19.611-19.611s19.611,8.797,19.611,19.611S440.66,409.176,429.847,409.176z"/>
	</g>
</g>
<g>
	<g>
		<path d="M260.24,354.054c-19.581,0-35.511,15.93-35.511,35.511c0,19.581,15.93,35.511,35.511,35.511
			c19.581,0,35.511-15.93,35.511-35.511C295.752,369.984,279.821,354.054,260.24,354.054z M260.24,409.176
			c-10.813,0-19.611-8.797-19.611-19.611s8.797-19.611,19.611-19.611s19.611,8.797,19.611,19.611S271.054,409.176,260.24,409.176z"
			/>
	</g>
</g>
<g>
	<g>
		<path d="M133.035,354.054c-19.581,0-35.511,15.93-35.511,35.511c0,19.581,15.93,35.511,35.511,35.511
			c19.581,0,35.511-15.93,35.511-35.511C168.547,369.984,152.616,354.054,133.035,354.054z M133.035,409.176
			c-10.813,0-19.611-8.797-19.611-19.611s8.797-19.611,19.611-19.611s19.611,8.797,19.611,19.611S143.849,409.176,133.035,409.176z"
			/>
	</g>
</g>
<g>
	<g>
		<path d="M338.683,61.482h-29.681c-4.392,0-7.95,3.559-7.95,7.95c0,4.392,3.559,7.95,7.95,7.95h21.731v26.501H15.901V77.383h250.7
			c4.392,0,7.95-3.559,7.95-7.95c0-4.392-3.559-7.95-7.95-7.95H7.95c-4.391,0-7.95,3.559-7.95,7.95v42.402
			c0,4.392,3.56,7.95,7.95,7.95h14.034l24.739,171.273c0.565,3.911,3.917,6.814,7.869,6.814h184.447
			c3.393,0,6.412-2.153,7.517-5.362l59.494-172.725h32.633c4.392,0,7.95-3.559,7.95-7.95V69.433
			C346.634,65.041,343.075,61.482,338.683,61.482z M233.369,281.971H61.477L38.05,119.785h251.183L233.369,281.971z"/>
	</g>
</g>
<g>
	<g>
		<path d="M156.356,148.406c-4.391,0-7.95,3.559-7.95,7.95v93.284c0,4.392,3.56,7.95,7.95,7.95c4.391,0,7.95-3.559,7.95-7.95
			v-93.284C164.306,151.964,160.747,148.406,156.356,148.406z"/>
	</g>
</g>
<g>
	<g>
		<path d="M243.876,148.885c-4.127-1.501-8.688,0.629-10.188,4.754l-33.921,93.284c-1.501,4.127,0.628,8.688,4.754,10.189
			c4.075,1.482,8.708-0.685,10.188-4.754l33.921-93.284C250.132,154.946,248.003,150.386,243.876,148.885z"/>
	</g>
</g>
<g>
	<g>
		<path d="M104.816,248.217l-16.961-93.284c-0.785-4.321-4.924-7.189-9.245-6.399c-4.32,0.786-7.185,4.925-6.399,9.245
			l16.961,93.284c0.784,4.317,5.088,7.241,9.391,6.37C102.752,256.584,105.582,252.429,104.816,248.217z"/>
	</g>
</g>
</svg>